<?xml version="1.0" standalone="no"?>
<!DOCTYPE svg PUBLIC "-//W3C//DTD SVG 20010904//EN"
 "http://www.w3.org/TR/2001/REC-SVG-20010904/DTD/svg10.dtd">
<svg version="1.0" xmlns="http://www.w3.org/2000/svg"
 width="512.000000pt" height="512.000000pt" viewBox="0 0 512.000000 512.000000"
 preserveAspectRatio="xMidYMid meet">

<g transform="translate(0.000000,512.000000) scale(0.100000,-0.100000)"
fill="#fff" stroke="none">
<path d="M2370 5113 c-379 -36 -661 -116 -980 -278 -378 -193 -717 -497 -965
-865 -104 -156 -232 -419 -294 -605 -49 -150 -89 -321 -113 -490 -17 -118 -17
-512 0 -630 42 -295 120 -553 242 -800 137 -280 272 -468 494 -691 221 -220
412 -357 681 -489 188 -92 309 -137 500 -185 500 -126 1002 -102 1490 71 149
53 407 182 540 271 365 243 667 578 866 963 181 348 271 694 286 1090 15 426
-73 832 -263 1214 -124 250 -263 447 -458 648 -216 224 -428 378 -711 518
-296 146 -572 225 -900 255 -102 9 -333 11 -415 3z m-783 -1324 c15 -5 241
-222 501 -482 l472 -472 473 472 c259 259 482 476 494 482 12 6 44 11 71 11
58 0 106 -28 135 -77 21 -37 25 -109 7 -145 -17 -32 -1078 -1096 -1112 -1114
-35 -18 -101 -18 -136 0 -15 8 -271 259 -569 558 -371 372 -544 552 -549 571
-10 44 1 112 24 145 39 54 121 77 189 51z m0 -1330 c15 -5 241 -222 501 -482
l472 -472 473 472 c259 260 485 477 500 482 107 40 217 -32 217 -142 0 -27 -5
-58 -11 -70 -16 -31 -1078 -1095 -1111 -1113 -35 -18 -101 -18 -136 0 -33 18
-1095 1082 -1111 1113 -17 33 -13 104 8 143 34 65 125 97 198 69z"/>
</g>
</svg>
